<svg width="30" height="30" viewBox="0 0 30 30" fill="none" xmlns="http://www.w3.org/2000/svg">
<path d="M15 0C12.0333 0 9.13319 0.879734 6.66645 2.52796C4.19972 4.17618 2.27713 6.51886 1.14181 9.25975C0.00649919 12.0006 -0.290551 15.0166 0.288227 17.9263C0.867006 20.8361 2.29562 23.5088 4.3934 25.6066C6.49119 27.7044 9.16393 29.133 12.0736 29.7118C14.9834 30.2906 17.9994 29.9935 20.7403 28.8582C23.4811 27.7229 25.8238 25.8003 27.472 23.3335C29.1203 20.8668 30 17.9667 30 15C30 11.0217 28.4196 7.20644 25.6066 4.3934C22.7936 1.58035 18.9782 0 15 0ZM15 27.3333C12.5607 27.3333 10.1762 26.61 8.14797 25.2548C6.11977 23.8996 4.53897 21.9734 3.60549 19.7198C2.67201 17.4661 2.42777 14.9863 2.90365 12.5939C3.37954 10.2015 4.55417 8.00386 6.27902 6.27901C8.00387 4.55417 10.2015 3.37953 12.5939 2.90365C14.9863 2.42776 17.4661 2.672 19.7198 3.60548C21.9734 4.53897 23.8996 6.11976 25.2548 8.14796C26.61 10.1762 27.3333 12.5607 27.3333 15C27.3289 18.2696 26.0281 21.4041 23.7161 23.7161C21.4041 26.0281 18.2697 27.3289 15 27.3333ZM20.4833 7.15L15 12.65L9.51667 7.15L7.15 9.51666L12.65 15L7.15 20.4833L9.51667 22.85L15 17.35L20.4833 22.85L22.85 20.4833L17.35 15L22.85 9.51666L20.4833 7.15Z" fill="#D4A373"/>
</svg>
