<svg width="40" height="31" viewBox="0 0 40 31" fill="none" xmlns="http://www.w3.org/2000/svg">
<path d="M1 6L1.35008 6.11773C3.09454 6.70442 3.96676 6.99775 4.46565 7.69612C4.96455 8.39448 4.96455 9.3221 4.96455 11.1774V14.6666C4.96455 18.4378 4.96455 20.3234 6.12574 21.495C7.28693 22.6666 9.15583 22.6666 12.8936 22.6666H23.4658" stroke="#D4A373" stroke-width="2" stroke-linecap="round"/>
<path d="M8.26835 25.9999C9.36313 25.9999 10.2506 26.8954 10.2506 27.9999C10.2506 29.1044 9.36313 29.9999 8.26835 29.9999C7.17356 29.9999 6.28607 29.1044 6.28607 27.9999C6.28607 26.8954 7.17356 25.9999 8.26835 25.9999Z" stroke="#D4A373" stroke-width="2"/>
<path d="M20.162 26C21.2567 26 22.1443 26.8953 22.1443 28C22.1443 29.1045 21.2567 30 20.162 30C19.0672 30 18.1797 29.1045 18.1797 28C18.1797 26.8953 19.0672 26 20.162 26Z" stroke="#D4A373" stroke-width="2"/>
<path d="M5 9H20.1319C22.8476 9 24.2053 9 24.793 9.89901C25.3805 10.798 24.8456 12.0572 23.7758 14.5757L23.2094 15.909C22.71 17.0848 22.4603 17.6726 21.9638 18.003C21.4673 18.3333 20.8333 18.3333 19.5655 18.3333H5" stroke="#D4A373" stroke-width="2"/>
<circle cx="35" cy="5" r="5" fill="#FF0404"/>
</svg>
