<svg width="40" height="31" viewBox="0 0 40 31" fill="none" xmlns="http://www.w3.org/2000/svg">
<path d="M1 6L1.35008 6.11773C3.09454 6.70442 3.96676 6.99775 4.46565 7.69612C4.96455 8.39448 4.96455 9.3221 4.96455 11.1774V14.6666C4.96455 18.4378 4.96455 20.3234 6.12574 21.495C7.28693 22.6666 9.15583 22.6666 12.8936 22.6666H23.4658" stroke="#FFFEFB" stroke-width="2" stroke-linecap="round"/>
<path d="M8.26841 25.9999C9.36319 25.9999 10.2507 26.8954 10.2507 27.9999C10.2507 29.1044 9.36319 29.9999 8.26841 29.9999C7.17362 29.9999 6.28613 29.1044 6.28613 27.9999C6.28613 26.8954 7.17362 25.9999 8.26841 25.9999Z" stroke="#FFFEFB" stroke-width="2"/>
<path d="M20.162 26C21.2567 26 22.1442 26.8953 22.1442 28C22.1442 29.1045 21.2567 30 20.162 30C19.0672 30 18.1797 29.1045 18.1797 28C18.1797 26.8953 19.0672 26 20.162 26Z" stroke="#FFFEFB" stroke-width="2"/>
<path d="M4.9646 9.99998H20.0965C22.8122 9.99998 24.1699 9.99998 24.7576 10.899C25.3451 11.798 24.8102 13.0572 23.7404 15.5757L23.174 16.909C22.6746 18.0847 22.4249 18.6726 21.9284 19.003C21.4319 19.3333 20.7979 19.3333 19.5301 19.3333H4.9646" stroke="#FFFEFB" stroke-width="2"/>
<circle cx="35" cy="5" r="5" fill="#FF0404"/>
</svg>
